# xmcd
#
# Track frame offsets: 
#        150
#        11456
#        23391
#        37688
#        48791
#        62964
#        74324
#        86781
#        100136
#        111436
#        124326
#        135700
#        148456
#        161457
#        173607
#        189148
#        202237
#        214282
#        225795
#        239067
#        251918
#        262131
#
# Disc length: 3703 seconds
#
# Revision: 8
# Processed by: cddbd v1.5.2PL0 Copyright (c) Steve Scherf et al.
# Submitted via: ExactAudioCopyFreeDBPlugin 1.0
#
DISCID=3d0e7516
DTITLE=Various Artist - A Cellarful of Motown
DYEAR=2005
DGENRE=Soul
TTITLE0=Diana Ross and The Supremes - Honey Bee (Keep on Stinging Me)
TTITLE1=J.J. Barnes - Everybody Needs Somebody (I Need You)
TTITLE2=The Miracles - Hoping the Pause is Helping the Cause
TTITLE3=Debbie Dean - Baby Baby I'm in Love Again
TTITLE4=The Isley Brothers - I Can't Go on Sharing Your Love
TTITLE5=The Lewis Sisters - Breakaway
TTITLE6=The Four Tops - It's a Lonely World Without Your Love
TTITLE7=Connie Haines - Midnight Johnny
TTITLE8=The Contours - Take Him Back If it Makes You Happy
TTITLE9=Chris Clark - Sweet Loving
TTITLE10=Terry Johnson - My Spring Time
TTITLE11=Martha and The Vandellas - Lone, Lonely Town
TTITLE12=The Originals - Nothing in This World Like My Baby
TTITLE13=The Monitors - Words
TTITLE14=The Supremes - You've Got to Pay the Price
TTITLE15=Rita Wright - Where is the Love
TTITLE16=Blinky - Rescue Me
TTITLE17=Patrice Holloway - Those DJ Shows
TTITLE18=Tammi Terrell - My Heart
TTITLE19=The Marvelettes - I Hope You Have Better Luck Than I Did
TTITLE20=Brenda Holloway - Crying Time
TTITLE21=Martha Reeves - Greetings to Tamla Motown Appreciation Societ
TTITLE21=y (Part 2)
EXTD=YEAR: 2005
EXTT0=
EXTT1=
EXTT2=
EXTT3=
EXTT4=
EXTT5=
EXTT6=
EXTT7=
EXTT8=
EXTT9=
EXTT10=
EXTT11=
EXTT12=
EXTT13=
EXTT14=
EXTT15=
EXTT16=
EXTT17=
EXTT18=
EXTT19=
EXTT20=
EXTT21=
PLAYORDER=
